<?xml version="1.0" encoding="utf-8"?>
<!-- Generator: Adobe Illustrator 23.0.4, SVG Export Plug-In . SVG Version: 6.00 Build 0)  -->
<svg version="1.1" id="Layer_1" xmlns="http://www.w3.org/2000/svg" xmlns:xlink="http://www.w3.org/1999/xlink" x="0px" y="0px"
	 viewBox="0 0 20 20" style="enable-background:new 0 0 20 20;" xml:space="preserve">
<style type="text/css">
	.st0{fill-rule:evenodd;clip-rule:evenodd;fill:#9CA4A8;}
</style>
<g>
	<path class="st0" d="M9.7,0.1L1.9,4.3l8.7,5.1c0.1,0,0.2,0.1,0.2,0.2l0,7.5c0,0.1-0.1,0.2-0.1,0.2l-0.5,0.3c-0.1,0-0.2,0-0.3,0
		l-0.5-0.3c-0.1,0-0.1-0.1-0.1-0.2v-6.6c0-0.1-0.1-0.2-0.2-0.2L1.4,5.9v8.9c0,0.2,0.2,0.4,0.3,0.5l7.9,4.7c0.3,0.1,0.4,0.1,0.8-0.1
		l7.8-4.6c0.2-0.1,0.4-0.3,0.4-0.5V5.9l-5.2,3.1c-0.1,0-0.2,0.1-0.3,0l-0.5-0.3c-0.1-0.1-0.2-0.2-0.2-0.3l0-0.6
		c0-0.1,0.1-0.2,0.1-0.2l5.6-3.3l-7.9-4.3C10.1,0,9.9,0,9.7,0.1L9.7,0.1z"/>
</g>
</svg>
